<svg xmlns="http://www.w3.org/2000/svg" xmlns:xlink="http://www.w3.org/1999/xlink" width="1080" zoomAndPan="magnify" viewBox="0 0 810 809.999993" height="1080" preserveAspectRatio="xMidYMid meet" version="1.0"><defs><clipPath id="ee66d265e4"><path d="M 0 170.472656 L 429.554688 170.472656 L 429.554688 661.390625 L 0 661.390625 Z M 0 170.472656 " clip-rule="nonzero"/></clipPath><clipPath id="0699e9efb4"><path d="M 0 415.929688 L 429.554688 170.472656 L 429.554688 661.390625 Z M 0 415.929688 " clip-rule="nonzero"/></clipPath><clipPath id="9087c272b6"><path d="M 77.722656 148.609375 L 507.273438 148.609375 L 507.273438 639.527344 L 77.722656 639.527344 Z M 77.722656 148.609375 " clip-rule="nonzero"/></clipPath><clipPath id="aef7f40810"><path d="M 77.722656 394.070312 L 507.273438 148.609375 L 507.273438 639.527344 Z M 77.722656 394.070312 " clip-rule="nonzero"/></clipPath><clipPath id="7af5fd4715"><path d="M 353.074219 181.394531 L 763.5 181.394531 L 763.5 650.449219 L 353.074219 650.449219 Z M 353.074219 181.394531 " clip-rule="nonzero"/></clipPath><clipPath id="7762eaf4e2"><path d="M 353.074219 415.921875 L 763.5 181.394531 L 763.5 650.449219 Z M 353.074219 415.921875 " clip-rule="nonzero"/></clipPath><clipPath id="1bf2cf4d85"><path d="M 399.566406 170.460938 L 809.992188 170.460938 L 809.992188 639.519531 L 399.566406 639.519531 Z M 399.566406 170.460938 " clip-rule="nonzero"/></clipPath><clipPath id="8791673982"><path d="M 399.566406 404.992188 L 809.992188 170.460938 L 809.992188 639.519531 Z M 399.566406 404.992188 " clip-rule="nonzero"/></clipPath></defs><g clip-path="url(#ee66d265e4)"><g clip-path="url(#0699e9efb4)"><path fill="#1d1f21" d="M 0 661.390625 L 0 170.472656 L 429.554688 170.472656 L 429.554688 661.390625 Z M 0 661.390625 " fill-opacity="1" fill-rule="nonzero"/></g></g><g clip-path="url(#9087c272b6)"><g clip-path="url(#aef7f40810)"><path fill="#ee8c3f" d="M 77.722656 639.527344 L 77.722656 148.609375 L 507.273438 148.609375 L 507.273438 639.527344 Z M 77.722656 639.527344 " fill-opacity="1" fill-rule="nonzero"/></g></g><g clip-path="url(#7af5fd4715)"><g clip-path="url(#7762eaf4e2)"><path fill="#1d1f21" d="M 353.074219 650.449219 L 353.074219 181.394531 L 763.5 181.394531 L 763.5 650.449219 Z M 353.074219 650.449219 " fill-opacity="1" fill-rule="nonzero"/></g></g><g clip-path="url(#1bf2cf4d85)"><g clip-path="url(#8791673982)"><path fill="#ee8c3f" d="M 399.566406 639.519531 L 399.566406 170.460938 L 809.992188 170.460938 L 809.992188 639.519531 Z M 399.566406 639.519531 " fill-opacity="1" fill-rule="nonzero"/></g></g></svg>